# xmcd
#
# Track frame offsets:
#	182
#	17885
#	31362
#	46167
#	56947
#	66912
#	78360
#	93982
#	105200
#	114632
#	136107
#	160435
#	196495
#	211842
#	238880
#	265902
#
# Disc length: 3940
#
# Revision: 1
# Processed by: cddbd v1.5.1PL0 Copyright (c) Steve Scherf et al.
# Submitted via: CDex 1.50
# Normalized: r0:TDELIM( - )
#
DISCID=dc0f6210
DTITLE=Various Artist - Jazz Juice #2
DYEAR=1995
DGENRE=Jazz
TTITLE0=Lou Rawls - The Girl From Ipanema (Live)
TTITLE1=Chet Baker - Do It The Hard Way
TTITLE2=Peggy Lee - Fever
TTITLE3=Billy Larkin and The Delegates - Pigmy (Part 1)
TTITLE4=Nancy Wilson - Call Me
TTITLE5=Oscar Brown Jr - Work Song
TTITLE6=King Pleasure - Jazz Jump
TTITLE7=Wild Bill Davis - Hit The Road Jack
TTITLE8=Boots Brown and His Blockbusters - Cerveza
TTITLE9=James Brown - Who's Afraid Of Virginia Wolf
TTITLE10=Mark Murphy - Ain't Nobody Here But Us Chickens
TTITLE11=Jimmy Smith - Got My Mojo Working
TTITLE12=Lonnie Smith - Minor Chant
TTITLE13=Lonnie Liston Smith - Mardi Gras
TTITLE14=Rob Mullins - Samba
TTITLE15=Jon Lucien - Listen Love
EXTD=YEAR: 1995
EXTT0=
EXTT1=
EXTT2=
EXTT3=
EXTT4=
EXTT5=
EXTT6=
EXTT7=
EXTT8=
EXTT9=
EXTT10=
EXTT11=
EXTT12=
EXTT13=
EXTT14=
EXTT15=
PLAYORDER=
